<svg xmlns="http://www.w3.org/2000/svg" xmlns:xlink="http://www.w3.org/1999/xlink" width="1284" zoomAndPan="magnify" viewBox="0 0 962.88 962.999993" height="1284" preserveAspectRatio="xMidYMid meet" version="1.0"><defs><filter x="0%" y="0%" width="100%" height="100%" id="79fe309834"><feColorMatrix values="0 0 0 0 1 0 0 0 0 1 0 0 0 0 1 0 0 0 1 0" color-interpolation-filters="sRGB"/></filter><mask id="27f1849f62"><g filter="url(#79fe309834)"><rect x="-96.288" width="1155.456" fill="#000000" y="-96.299999" height="1155.599992" fill-opacity="0.18"/></g></mask><clipPath id="a2ef357861"><path d="M 27 35 L 923 35 L 923 923 L 27 923 Z M 27 35 " clip-rule="nonzero"/></clipPath><clipPath id="acb4f0a703"><path d="M 250.15625 -7.941406 L 955 250.285156 L 696.773438 955.128906 L -8.070312 696.902344 Z M 250.15625 -7.941406 " clip-rule="nonzero"/></clipPath><clipPath id="a9d251023a"><path d="M 250.15625 -7.941406 L 955 250.285156 L 696.773438 955.128906 L -8.070312 696.902344 Z M 250.15625 -7.941406 " clip-rule="nonzero"/></clipPath><clipPath id="03b93cbc19"><rect x="0" width="949" y="0" height="950"/></clipPath></defs><g mask="url(#27f1849f62)"><g transform="matrix(1, 0, 0, 1, 8, 8)"><g clip-path="url(#03b93cbc19)"><g clip-path="url(#a2ef357861)"><g clip-path="url(#acb4f0a703)"><g clip-path="url(#a9d251023a)"><path fill="#d9d9d9" d="M 431.046875 442.980469 C 416.175781 445.300781 412.066406 422.382812 426.9375 420.0625 C 444.636719 417.261719 458.6875 402.703125 461.175781 385.046875 C 463.851562 366.886719 455.066406 347.941406 441.273438 336.449219 C 426.164062 323.902344 405.71875 318.683594 386.378906 319.746094 C 367.605469 320.828125 349.320312 326.253906 330.417969 324.066406 C 293.0625 319.476562 269.230469 287.816406 268.664062 251.609375 C 267.949219 212.695312 291.363281 180.34375 298.808594 143.46875 C 305.667969 109.222656 290.570312 73.375 258.257812 58.125 C 244.882812 51.710938 252.671875 29.929688 266.277344 36.242188 C 306.195312 55.035156 329.863281 98.003906 322.660156 141.976562 C 316.152344 181.464844 286.617188 219.152344 292.554688 260.359375 C 295.410156 279.976562 309.324219 296.820312 329.363281 300.5625 C 349.90625 304.488281 371.128906 296.726562 391.847656 296.550781 C 432.496094 296.28125 472.261719 320.136719 482.941406 360.808594 C 492.171875 397.160156 469.046875 437.003906 431.046875 442.980469 Z M 450.542969 509.238281 C 424.910156 517.660156 392.660156 515.699219 370.03125 500.398438 C 339.617188 479.96875 376.433594 454.992188 387.714844 435.0625 C 400.371094 412.414062 393.925781 386.554688 375.40625 369.351562 C 355.25 350.40625 326.621094 347.875 300.375 352.28125 C 274.75 356.539062 231.675781 379.980469 211.828125 352.433594 C 203.011719 340.296875 185.238281 355.199219 193.886719 367.273438 C 212.703125 393.492188 246.851562 390.277344 274.261719 382.695312 C 300.652344 375.3125 335.746094 364.863281 358.890625 385.46875 C 367.007812 392.800781 373.316406 404.019531 370.90625 415.261719 C 367.828125 429.859375 353.164062 440.40625 345.050781 452.210938 C 336.875 464.1875 331.550781 478.71875 335.90625 493.203125 C 339.691406 506.144531 349.992188 515.792969 361.453125 522.265625 C 391.796875 539.257812 427.773438 540.878906 460.449219 530.300781 C 474.429688 525.757812 464.523438 504.699219 450.542969 509.238281 Z M 504.78125 318.785156 C 493.417969 308.9375 479.964844 328.074219 491.222656 337.691406 C 514.992188 358.148438 509.695312 392.777344 499.644531 418.65625 C 494.171875 432.566406 516.054688 440.582031 521.53125 426.671875 C 535.785156 389.832031 536.953125 346.300781 504.78125 318.785156 Z M 557.28125 332.714844 C 548.980469 320.199219 530.976562 335.203125 539.335938 347.550781 C 555.242188 371.378906 557.199219 404.308594 543.667969 429.859375 C 540.691406 435.398438 540.890625 442.101562 546.457031 446.039062 C 551.085938 449.4375 559.828125 448.851562 562.636719 443.25 C 581.464844 407.890625 579.648438 366.300781 557.28125 332.714844 Z M 429.8125 228.601562 C 422.183594 216.332031 407.03125 209.074219 392.839844 213.160156 C 383.757812 215.707031 376.167969 222.972656 373.152344 231.71875 C 370.191406 236.699219 368.339844 242.273438 368.492188 248.582031 C 368.792969 263.28125 380.304688 273.75 393.152344 279.027344 C 425.027344 291.839844 446.382812 254.757812 429.8125 228.601562 Z M 390.695312 155.910156 C 376.5 142.941406 355.191406 153.515625 342.839844 163.957031 C 328.523438 176.144531 319.757812 192.828125 316.855469 211.09375 C 314.449219 225.9375 337.808594 227.863281 340.046875 212.957031 C 341.699219 202.761719 346.3125 193.273438 353.230469 185.765625 C 357.589844 181.109375 370.71875 169.054688 377.136719 174.816406 C 388.207031 184.9375 401.496094 165.742188 390.695312 155.910156 Z M 232.460938 110.445312 C 223.933594 98.035156 206.097656 113.101562 214.519531 125.285156 C 222.773438 137.402344 225.761719 152.519531 223.539062 166.863281 C 221.097656 182.832031 211.753906 194.378906 200.507812 205.417969 C 188.914062 216.898438 177.027344 228.648438 171.882812 244.765625 C 166.859375 260.546875 167.898438 276.84375 174.09375 291.996094 C 179.761719 306.011719 200.824219 296.105469 195.324219 282.152344 C 179.957031 243.933594 220.84375 225.941406 236.976562 197.933594 C 252.59375 170.308594 250.273438 136.296875 232.460938 110.445312 Z M 358.484375 581.054688 C 327.972656 588.824219 300.605469 566.292969 297.5625 535.808594 C 294.824219 510.171875 307.535156 483.753906 293.441406 459.644531 C 277.152344 431.695312 242.082031 433.816406 214.828125 439.9375 C 200.378906 443.167969 185 447.390625 170.554688 442.855469 C 156.550781 438.671875 145.933594 428.339844 140.023438 414.996094 C 134.066406 401.253906 112.839844 411.097656 118.796875 424.839844 C 132.082031 455.289062 162.917969 470.941406 195.335938 467.28125 C 218.429688 464.753906 269.601562 443.519531 276.398438 480.304688 C 278.769531 493.488281 275.207031 507.34375 274.308594 520.65625 C 273.238281 535.992188 275.210938 551.304688 282 565.351562 C 296.660156 595.164062 330.089844 612.527344 362.699219 604.199219 C 376.996094 600.34375 373.113281 577.320312 358.484375 581.054688 Z M 488.292969 94.839844 C 472.582031 118.074219 442.316406 130.863281 414.730469 123.410156 C 387.707031 115.972656 366.699219 89.515625 365.78125 61.515625 C 365.207031 46.527344 342.078125 44.496094 342.648438 59.484375 C 343.941406 97.851562 369.039062 134.335938 406.773438 145.125 C 444.109375 155.960938 485.660156 140.300781 507.261719 108.230469 C 515.558594 95.925781 496.652344 82.367188 488.292969 94.839844 Z M 686.457031 305.949219 C 686.015625 275.09375 659.523438 255.34375 629.578125 261.050781 C 614.917969 263.824219 602.085938 271.441406 588 275.753906 C 578.859375 278.46875 561.464844 280.433594 557.023438 268.765625 C 554.347656 262.097656 560.082031 254.726562 563.394531 249.308594 C 567.46875 242.839844 571.601562 236.207031 573.960938 228.734375 C 578.066406 215.460938 577.355469 201.367188 572.84375 188.34375 C 563.542969 162.011719 536.933594 146.199219 509.523438 148.09375 C 477.429688 150.359375 452.324219 179.058594 452.734375 211.039062 C 452.972656 225.90625 476.101562 227.9375 475.925781 212.90625 C 475.695312 182.503906 506.558594 160.839844 534.246094 176.289062 C 547.316406 183.542969 554.425781 198.273438 553.371094 213.042969 C 552.222656 229.109375 539.414062 239.765625 534.925781 254.605469 C 524.984375 286.394531 558.699219 305.566406 586.207031 300.300781 C 601.886719 297.328125 615.375 288.4375 630.738281 284.78125 C 645.246094 281.378906 663.109375 286.40625 663.203125 304.253906 C 663.503906 318.953125 686.632812 320.984375 686.457031 305.949219 Z M 671.339844 188.429688 C 663.113281 177.269531 648.179688 168.386719 634.382812 172.425781 C 621.167969 173.839844 609.898438 183.917969 607.082031 197.289062 C 604.050781 212.285156 611.75 227.992188 624.699219 235.574219 C 639.132812 244.273438 657.972656 243.027344 669.828125 230.320312 C 680.816406 218.429688 680.871094 201.207031 671.339844 188.429688 Z M 293.441406 662.386719 C 256.132812 671.648438 237.625 631.136719 238.078125 600.417969 C 238.402344 585.570312 215.105469 583.476562 214.886719 598.554688 C 214.542969 621.734375 219.410156 645.6875 234.808594 663.644531 C 250.105469 681.375 274.355469 691.207031 297.492188 685.472656 C 311.957031 681.675781 308.074219 658.652344 293.441406 662.386719 Z M 295.308594 702.292969 C 249.859375 720.320312 210.328125 680.824219 193.957031 642.238281 C 188.0625 628.328125 167 638.234375 172.726562 652.082031 C 194.523438 703.269531 247.347656 746.304688 304.984375 723.460938 C 319.164062 717.855469 309.257812 696.792969 295.308594 702.292969 Z M 720.042969 733.03125 C 706.589844 727.34375 685.300781 718.21875 685.3125 700.601562 C 685.363281 685.460938 708.15625 676 717.542969 666.933594 C 741.460938 644.054688 756.03125 609.976562 742 577.933594 C 735.984375 564.359375 725.234375 552.839844 711.675781 546.925781 C 697.113281 540.644531 681.34375 542.824219 666.785156 547.914062 C 651.664062 552.984375 637.8125 560.792969 621.875 562.914062 C 607.128906 564.898438 590.472656 562.777344 578.425781 553.25 C 566.441406 543.550781 562.070312 527.550781 557.757812 513.464844 C 552.929688 497.675781 548.042969 482.050781 537.222656 469.179688 C 527.597656 457.695312 509.65625 472.535156 519.28125 484.019531 C 538.148438 506.472656 536.109375 539.453125 554.628906 562.34375 C 575.210938 587.882812 612.203125 591.390625 641.847656 582.359375 C 657.183594 577.742188 671.644531 568.261719 687.792969 566.597656 C 702.816406 564.902344 715.027344 574.492188 720.878906 588.003906 C 727.789062 603.800781 723.671875 621.238281 714.367188 635.261719 C 704.175781 650.667969 688.863281 658.320312 675.945312 670.832031 C 662.507812 683.71875 658.433594 701.554688 665.980469 718.71875 C 674.476562 737.9375 693.667969 747.621094 712.007812 755.480469 C 725.921875 760.953125 733.769531 739.007812 720.042969 733.03125 Z M 653.644531 912.207031 C 657.148438 882.984375 672.125 850.386719 651.574219 823.722656 C 634.285156 801.089844 600.382812 803.640625 584.050781 780.980469 C 566.582031 756.769531 575.898438 725.128906 592.75 703.449219 C 610.421875 680.554688 644.570312 663.886719 643.070312 630.746094 C 642.75 624.375 639.3125 618.757812 632.519531 618.164062 C 626.851562 617.601562 619.726562 622.570312 619.941406 628.710938 C 620.769531 644.554688 608.75 655.121094 597.871094 665.15625 C 585.960938 675.949219 574.488281 687.09375 566.136719 701.089844 C 551.519531 725.484375 546.429688 754.882812 557.859375 781.617188 C 562.863281 793.304688 571.332031 803.796875 582.214844 810.816406 C 594.207031 818.429688 607.953125 821.761719 620.601562 828.101562 C 652.710938 844.410156 633.722656 883.308594 630.617188 910.40625 C 628.605469 925.207031 651.796875 927.070312 653.644531 912.207031 Z M 723.886719 860.632812 C 725.339844 832.363281 717.546875 791.046875 689.660156 776.660156 C 675.464844 769.375 659.351562 769.914062 646.132812 759.957031 C 634.738281 751.234375 628.128906 738.769531 627.476562 724.507812 C 627.160156 718.140625 619.507812 714.199219 613.851562 715.160156 C 607.007812 716.253906 604.179688 722.417969 604.5 728.785156 C 605.9375 756.410156 626.675781 780.492188 652.128906 789.628906 C 660.148438 792.566406 669.023438 793.164062 676.917969 796.4375 C 683.8125 799.339844 687.75 805.140625 690.882812 811.59375 C 698.21875 826.21875 701.175781 842.460938 700.527344 858.707031 C 699.976562 873.664062 723.335938 875.589844 723.886719 860.632812 Z M 812.246094 551.179688 C 800.128906 526.84375 776.035156 502.101562 749.300781 494.390625 C 720 485.929688 691.546875 496.351562 662.808594 501.359375 C 640.96875 505.105469 605.9375 504.019531 601.078125 475.902344 C 598.53125 461.136719 575.613281 465.246094 578.160156 480.011719 C 582 502.640625 601.113281 518.738281 622.789062 524.214844 C 650.394531 531.105469 677.535156 521.15625 704.632812 516.492188 C 718.214844 514.078125 732.886719 512.820312 746.023438 517.824219 C 759.15625 522.824219 770.671875 533.296875 779.644531 543.972656 C 796.285156 563.710938 805.351562 592.234375 789.035156 615.058594 C 780.234375 627.183594 799.308594 640.800781 807.941406 628.617188 C 824.199219 605.960938 824.40625 575.910156 812.246094 551.179688 Z M 763.484375 708.585938 C 752.550781 691.886719 761.644531 671.722656 779.1875 664.695312 C 793.136719 659.195312 783.292969 637.96875 769.339844 643.464844 C 736.539062 656.460938 727.082031 694.683594 745.605469 723.257812 C 753.675781 735.878906 771.617188 721.039062 763.484375 708.585938 Z M 843.34375 483.371094 C 841.21875 461.75 824.496094 444.820312 804.796875 437.035156 C 780.320312 427.308594 753.140625 432.703125 727.976562 436.746094 C 704.222656 440.550781 679.457031 442.464844 659.71875 426.519531 C 643.0625 413.027344 634.234375 391.601562 636.824219 370.570312 C 638.667969 355.710938 615.476562 353.84375 613.632812 368.707031 C 608.066406 414.417969 642.710938 457.425781 688.210938 462.535156 C 715.867188 465.660156 742.507812 455.523438 769.992188 454.980469 C 791.335938 454.652344 817.886719 462.863281 820.363281 487.644531 C 821.789062 502.378906 844.703125 498.269531 843.34375 483.371094 Z M 552.296875 660.777344 C 563.78125 651.152344 548.941406 633.207031 537.457031 642.832031 C 520.367188 657.414062 506.738281 674.96875 497.1875 695.347656 C 489.378906 712.003906 482.089844 733.964844 492.507812 751.042969 C 500.183594 763.710938 521.351562 754.03125 513.738281 741.199219 C 506.273438 728.992188 514.886719 711.683594 520.734375 700.375 C 528.28125 684.949219 539.199219 671.703125 552.296875 660.777344 Z M 471.585938 735.230469 C 467.960938 732.199219 471.753906 721.839844 472.8125 718.4375 C 475.371094 709.902344 478.261719 701.488281 481.65625 693.257812 C 488.613281 676.855469 498.011719 661.542969 511.3125 649.550781 C 522.417969 639.40625 507.578125 621.464844 496.472656 631.609375 C 477.675781 648.785156 464.867188 670.8125 456.117188 694.699219 C 449.078125 713.910156 439.792969 738.742188 458.132812 754.367188 C 469.386719 763.984375 482.839844 744.851562 471.585938 735.230469 Z M 515.671875 581.796875 C 492.511719 578.808594 468.949219 580.027344 446.226562 585.15625 C 431.714844 588.558594 435.660156 611.414062 450.335938 608.074219 C 471.414062 603.289062 492.441406 602.277344 513.804688 604.988281 C 528.667969 606.832031 530.53125 583.640625 515.671875 581.796875 Z M 516.136719 539.144531 C 504.539062 533.570312 492.09375 531.851562 479.398438 532.886719 C 473.132812 533.433594 468.980469 540.628906 470.046875 546.511719 C 471.199219 553.1875 477.242188 556.347656 483.675781 555.863281 C 492.25 555.214844 500.574219 557.316406 508.285156 561.089844 C 513.949219 563.734375 521.105469 559.722656 523.125 554.210938 C 525.511719 547.695312 521.800781 541.789062 516.136719 539.144531 Z M 394.65625 753.851562 C 381.289062 743.269531 362.699219 730.394531 359.292969 712.28125 C 357.039062 700.847656 365.089844 691.289062 371.75 682.929688 C 379.40625 673.417969 387.058594 663.90625 394.878906 654.453125 C 404.285156 642.742188 385.316406 629.351562 375.972656 640.894531 C 362.191406 657.824219 342.171875 676.261719 337.027344 698.0625 C 332.34375 717.570312 342.484375 736.441406 355.582031 750.335938 C 375.507812 771.46875 429.074219 796.964844 416.003906 833.675781 C 411.027344 847.769531 432.746094 855.726562 437.886719 841.691406 C 450.851562 804.753906 421.113281 774.722656 394.65625 753.851562 Z M 515.925781 861.945312 C 514.625 852.5625 515.863281 842.972656 514 833.574219 C 512.226562 824.96875 509.101562 816.433594 504.652344 808.925781 C 495.492188 793.066406 482.386719 781.253906 465.898438 773.507812 C 452.355469 767.03125 444.503906 788.976562 457.882812 795.394531 C 470.148438 801.214844 480.265625 811.363281 486.042969 823.519531 C 492.832031 837.566406 490.6875 851.183594 492.839844 865.992188 C 495.097656 881.03125 518.015625 876.921875 515.925781 861.945312 Z M 568.070312 845.804688 C 562.90625 831.976562 553.34375 820.324219 548.464844 806.21875 C 543.652344 791.949219 522.527344 802.023438 527.238281 816.066406 C 530.710938 826.242188 536.417969 834.964844 541.382812 844.175781 C 546.027344 852.699219 552.035156 864.75 546.796875 874.390625 C 539.773438 887.355469 558.621094 901.082031 565.703125 887.949219 C 573.203125 874.210938 573.386719 860.257812 568.070312 845.804688 Z M 851.839844 318.980469 C 842.847656 328.003906 835.601562 319.851562 833.46875 310.164062 C 831.289062 300.082031 830.871094 289.320312 825.96875 279.945312 C 812.824219 254.285156 781.773438 251.625 757.308594 260.472656 C 746.386719 264.429688 735.292969 270.40625 732.34375 282.589844 C 729.089844 295.609375 736.554688 307.820312 744.601562 317.398438 C 753.410156 328.015625 765.042969 338.152344 769.144531 351.78125 C 773.050781 364.394531 766.640625 375.6875 755.105469 381.3125 C 732.945312 392.144531 682.789062 384.757812 689.800781 351.136719 C 692.875 336.535156 669.683594 334.671875 666.609375 349.269531 C 660.074219 380.035156 687.777344 402.691406 715.09375 407.773438 C 743.476562 413.054688 779.960938 405.011719 790.976562 374.9375 C 795.9375 361.40625 793.28125 346.414062 786.773438 334.175781 C 779.148438 319.824219 766.265625 309.988281 757.769531 296.453125 C 753.472656 289.574219 754.554688 287.128906 761.570312 284.015625 C 768.359375 281.007812 776.023438 278.699219 783.5625 278.808594 C 800.101562 279.183594 806.535156 290.066406 808.976562 304.605469 C 811.074219 317.5 813.472656 331.640625 824.824219 339.96875 C 837.265625 349.453125 855.765625 348.082031 866.84375 336.984375 C 877.175781 326.367188 862.398438 308.257812 851.839844 318.980469 Z M 892.964844 365.5 C 893.851562 350.667969 870.722656 348.636719 869.773438 363.636719 C 869.03125 375.492188 863.367188 386.300781 852.832031 392.292969 C 842.695312 398.246094 828.011719 397.980469 821.988281 386.488281 C 815.058594 373.339844 793.894531 383.019531 800.761719 396.335938 C 811.792969 417.429688 835.6875 424.097656 857.320312 415.730469 C 878.042969 407.785156 891.652344 387.191406 892.964844 365.5 Z M 887.289062 292.554688 C 864.875 296.847656 834.152344 285.023438 827.914062 261.707031 C 823.953125 247.179688 846.972656 243.300781 850.832031 257.597656 C 853.121094 265.828125 870 269.925781 876.914062 270.1875 C 882.371094 270.289062 887.527344 269.148438 892.066406 266.070312 C 893.90625 264.664062 895.582031 263.191406 896.878906 261.203125 C 897.644531 260.15625 897.949219 259.320312 898.300781 258.882812 C 893.519531 249.171875 905.058594 235.777344 915.117188 244.011719 C 937.386719 261.832031 905.570312 289.210938 887.289062 292.554688 Z M 803.863281 225.988281 C 796.273438 208.429688 776.144531 203.898438 758.753906 203.777344 C 740.40625 203.691406 721.882812 207.703125 710.507812 223.242188 C 701.707031 235.367188 720.613281 248.925781 729.414062 236.800781 C 735.574219 228.257812 746.871094 226.902344 756.890625 226.972656 C 765.21875 226.992188 778.898438 226.886719 782.859375 235.726562 C 788.816406 249.46875 809.984375 239.789062 803.863281 225.988281 Z M 210.035156 516.628906 C 191.949219 528.757812 168.203125 536.164062 146.480469 530.292969 C 126.324219 524.800781 110.597656 508.242188 108.6875 487.078125 C 107.328125 472.175781 84.410156 476.285156 85.773438 491.1875 C 88.300781 519.96875 111.226562 544.28125 138.523438 552.007812 C 168.722656 560.609375 199.617188 551.273438 224.9375 534.402344 C 237.390625 526.269531 222.324219 508.433594 210.035156 516.628906 Z M 157.1875 591.058594 C 142.789062 598.289062 122.488281 590.09375 109.476562 582.675781 C 94.253906 574.066406 82.167969 562.058594 72.808594 547.261719 C 64.738281 534.640625 46.960938 549.539062 54.867188 562.097656 C 66.859375 581.082031 84.152344 595.945312 104.179688 605.933594 C 122.929688 615.265625 147.386719 621.953125 167.09375 612.121094 C 180.347656 605.417969 170.609375 584.417969 157.1875 591.058594 Z M 141.632812 668.164062 C 125.214844 675.222656 107.09375 677.109375 89.695312 673.390625 C 78.121094 670.855469 51.296875 662.355469 51.179688 647.152344 C 51.109375 632.347656 27.8125 630.253906 27.988281 645.289062 C 28.003906 671.632812 53.152344 687.289062 76.089844 693.984375 C 101.089844 701.25 127.421875 699.71875 151.417969 689.558594 C 165.113281 683.207031 155.375 662.207031 141.632812 668.164062 Z M 296.578125 754.679688 C 276.691406 762.929688 254.777344 761.722656 234.773438 754.773438 C 218.675781 749.066406 191.328125 737.339844 188.058594 718.332031 C 185.511719 703.566406 162.59375 707.675781 165.140625 722.441406 C 169.910156 749.769531 200.253906 766.757812 224.082031 775.679688 C 250.75 785.636719 280.039062 786.894531 306.589844 775.96875 C 320.101562 770.117188 310.425781 748.949219 296.578125 754.679688 Z M 296.578125 754.679688 " fill-opacity="1" fill-rule="nonzero"/></g></g></g></g></g></g></svg>